<svg width="1200" height="900" viewBox="0 0 1200 900" fill="none" xmlns="http://www.w3.org/2000/svg">
  <defs>
    <linearGradient id="bg" x1="0" y1="0" x2="1200" y2="900">
      <stop stop-color="#07101D"/>
      <stop offset="1" stop-color="#10203A"/>
    </linearGradient>
    <linearGradient id="panel" x1="0" y1="0" x2="0" y2="1">
      <stop stop-color="#1B2940"/>
      <stop offset="1" stop-color="#0D1627"/>
    </linearGradient>
    <linearGradient id="accent" x1="220" y1="160" x2="1000" y2="760">
      <stop stop-color="#22D3EE"/>
      <stop offset="1" stop-color="#38BDF8"/>
    </linearGradient>
  </defs>
  <rect width="1200" height="900" rx="48" fill="url(#bg)"/>
  <circle cx="200" cy="180" r="145" fill="#22D3EE" fill-opacity="0.12"/>
  <circle cx="1000" cy="160" r="160" fill="#818CF8" fill-opacity="0.1"/>
  <rect x="120" y="120" width="960" height="660" rx="36" fill="#08111F" fill-opacity="0.78" stroke="#FFFFFF" stroke-opacity="0.08"/>
  <rect x="160" y="160" width="340" height="560" rx="28" fill="url(#panel)" stroke="#FFFFFF" stroke-opacity="0.08"/>
  <circle cx="330" cy="240" r="76" fill="url(#accent)"/>
  <text x="330" y="253" text-anchor="middle" fill="#0A0F1C" font-family="Inter, Arial, sans-serif" font-size="34" font-weight="800">HI</text>
  <text x="330" y="344" text-anchor="middle" fill="#F8FAFC" font-family="Inter, Arial, sans-serif" font-size="28" font-weight="800">Himasha</text>
  <text x="330" y="374" text-anchor="middle" fill="#94A3B8" font-family="Inter, Arial, sans-serif" font-size="15">SLIIT undergraduate</text>
  <rect x="204" y="416" width="252" height="14" rx="7" fill="#FFFFFF" fill-opacity="0.10"/>
  <rect x="204" y="446" width="220" height="14" rx="7" fill="#FFFFFF" fill-opacity="0.08"/>
  <rect x="204" y="476" width="236" height="14" rx="7" fill="#FFFFFF" fill-opacity="0.08"/>
  <rect x="204" y="530" width="110" height="70" rx="18" fill="#FFFFFF" fill-opacity="0.05"/>
  <rect x="326" y="530" width="110" height="70" rx="18" fill="#FFFFFF" fill-opacity="0.05"/>
  <text x="259" y="563" text-anchor="middle" fill="#22D3EE" font-family="Inter, Arial, sans-serif" font-size="24" font-weight="800">3</text>
  <text x="259" y="585" text-anchor="middle" fill="#94A3B8" font-family="Inter, Arial, sans-serif" font-size="12" font-weight="700" letter-spacing="2">YEARS</text>
  <text x="381" y="563" text-anchor="middle" fill="#22D3EE" font-family="Inter, Arial, sans-serif" font-size="24" font-weight="800">6+</text>
  <text x="381" y="585" text-anchor="middle" fill="#94A3B8" font-family="Inter, Arial, sans-serif" font-size="12" font-weight="700" letter-spacing="2">PROJECTS</text>
  <rect x="532" y="160" width="508" height="560" rx="28" fill="#0B1324" fill-opacity="0.9" stroke="#FFFFFF" stroke-opacity="0.08"/>
  <text x="572" y="214" fill="#22D3EE" font-family="Inter, Arial, sans-serif" font-size="18" font-weight="700" letter-spacing="3">PROFILE SNAPSHOT</text>
  <rect x="572" y="246" width="176" height="68" rx="18" fill="#FFFFFF" fill-opacity="0.04"/>
  <rect x="762" y="246" width="240" height="68" rx="18" fill="#FFFFFF" fill-opacity="0.04"/>
  <rect x="572" y="330" width="430" height="1" fill="#FFFFFF" fill-opacity="0.08"/>
  <rect x="572" y="360" width="430" height="84" rx="20" fill="#FFFFFF" fill-opacity="0.03"/>
  <rect x="572" y="458" width="430" height="84" rx="20" fill="#FFFFFF" fill-opacity="0.03"/>
  <rect x="572" y="556" width="430" height="84" rx="20" fill="#FFFFFF" fill-opacity="0.03"/>
  <circle cx="608" cy="280" r="16" fill="#22D3EE" fill-opacity="0.25"/>
  <circle cx="796" cy="280" r="16" fill="#38BDF8" fill-opacity="0.22"/>
  <circle cx="608" cy="402" r="16" fill="#818CF8" fill-opacity="0.22"/>
  <circle cx="608" cy="500" r="16" fill="#22D3EE" fill-opacity="0.22"/>
  <circle cx="608" cy="598" r="16" fill="#38BDF8" fill-opacity="0.22"/>
  <text x="642" y="286" fill="#F8FAFC" font-family="Inter, Arial, sans-serif" font-size="18" font-weight="700">Software Engineering</text>
  <text x="796" y="286" fill="#94A3B8" font-family="Inter, Arial, sans-serif" font-size="14" font-weight="700">Internship ready</text>
  <text x="642" y="404" fill="#F8FAFC" font-family="Inter, Arial, sans-serif" font-size="18" font-weight="700">Full stack delivery</text>
  <text x="642" y="430" fill="#94A3B8" font-family="Inter, Arial, sans-serif" font-size="14">Clean UI, APIs, and maintainable code</text>
  <text x="642" y="502" fill="#F8FAFC" font-family="Inter, Arial, sans-serif" font-size="18" font-weight="700">Mobile app development</text>
  <text x="642" y="528" fill="#94A3B8" font-family="Inter, Arial, sans-serif" font-size="14">Kotlin, Android Studio, useful workflows</text>
  <text x="642" y="600" fill="#F8FAFC" font-family="Inter, Arial, sans-serif" font-size="18" font-weight="700">Team collaboration</text>
  <text x="642" y="626" fill="#94A3B8" font-family="Inter, Arial, sans-serif" font-size="14">Reliable communication and ownership</text>
</svg>