<svg width="1200" height="900" viewBox="0 0 1200 900" fill="none" xmlns="http://www.w3.org/2000/svg">
  <defs>
    <linearGradient id="bg" x1="0" y1="0" x2="1200" y2="900">
      <stop stop-color="#07101D"/>
      <stop offset="1" stop-color="#10203A"/>
    </linearGradient>
    <linearGradient id="accent" x1="250" y1="180" x2="950" y2="760">
      <stop stop-color="#22D3EE"/>
      <stop offset="1" stop-color="#38BDF8"/>
    </linearGradient>
  </defs>
  <rect width="1200" height="900" rx="48" fill="url(#bg)"/>
  <circle cx="220" cy="150" r="140" fill="#22D3EE" fill-opacity="0.12"/>
  <circle cx="980" cy="180" r="150" fill="#818CF8" fill-opacity="0.09"/>
  <rect x="120" y="120" width="960" height="660" rx="36" fill="#08111F" fill-opacity="0.78" stroke="#FFFFFF" stroke-opacity="0.08"/>
  <rect x="210" y="250" width="360" height="330" rx="24" fill="#0F1B31" stroke="#FFFFFF" stroke-opacity="0.08"/>
  <path d="M240 330L390 240L540 330V360H240V330Z" fill="url(#accent)" fill-opacity="0.9"/>
  <rect x="280" y="360" width="40" height="164" rx="12" fill="#FFFFFF" fill-opacity="0.12"/>
  <rect x="340" y="360" width="40" height="164" rx="12" fill="#FFFFFF" fill-opacity="0.12"/>
  <rect x="400" y="360" width="40" height="164" rx="12" fill="#FFFFFF" fill-opacity="0.12"/>
  <rect x="460" y="360" width="40" height="164" rx="12" fill="#FFFFFF" fill-opacity="0.12"/>
  <rect x="255" y="590" width="270" height="20" rx="10" fill="#22D3EE" fill-opacity="0.16"/>
  <rect x="630" y="184" width="344" height="176" rx="28" fill="#0F1B31" stroke="#FFFFFF" stroke-opacity="0.08"/>
  <text x="670" y="228" fill="#22D3EE" font-family="Inter, Arial, sans-serif" font-size="18" font-weight="700" letter-spacing="3">ACADEMIC ROADMAP</text>
  <rect x="670" y="254" width="160" height="14" rx="7" fill="#FFFFFF" fill-opacity="0.10"/>
  <rect x="670" y="282" width="220" height="14" rx="7" fill="#FFFFFF" fill-opacity="0.08"/>
  <rect x="670" y="310" width="190" height="14" rx="7" fill="#FFFFFF" fill-opacity="0.08"/>
  <rect x="630" y="388" width="344" height="160" rx="28" fill="#0B1324" fill-opacity="0.95" stroke="#FFFFFF" stroke-opacity="0.08"/>
  <circle cx="690" cy="468" r="34" fill="#22D3EE" fill-opacity="0.18"/>
  <circle cx="770" cy="468" r="34" fill="#22D3EE" fill-opacity="0.12"/>
  <circle cx="850" cy="468" r="34" fill="#22D3EE" fill-opacity="0.2"/>
  <text x="690" y="474" text-anchor="middle" fill="#F8FAFC" font-family="Inter, Arial, sans-serif" font-size="18" font-weight="800">UI</text>
  <text x="770" y="474" text-anchor="middle" fill="#F8FAFC" font-family="Inter, Arial, sans-serif" font-size="18" font-weight="800">API</text>
  <text x="850" y="474" text-anchor="middle" fill="#F8FAFC" font-family="Inter, Arial, sans-serif" font-size="18" font-weight="800">DB</text>
  <rect x="630" y="574" width="344" height="186" rx="28" fill="#0F1B31" stroke="#FFFFFF" stroke-opacity="0.08"/>
  <path d="M670 708C720 640 776 660 832 612C860 588 884 570 922 544" stroke="url(#accent)" stroke-width="8" stroke-linecap="round" stroke-linejoin="round"/>
  <circle cx="670" cy="708" r="6" fill="#22D3EE"/>
  <circle cx="716" cy="650" r="6" fill="#22D3EE"/>
  <circle cx="776" cy="655" r="6" fill="#22D3EE"/>
  <circle cx="832" cy="612" r="6" fill="#22D3EE"/>
  <circle cx="922" cy="544" r="6" fill="#22D3EE"/>
</svg>