<svg width="1200" height="900" viewBox="0 0 1200 900" fill="none" xmlns="http://www.w3.org/2000/svg">
  <defs>
    <linearGradient id="bg" x1="120" y1="80" x2="1080" y2="820" gradientUnits="userSpaceOnUse">
      <stop stop-color="#08101F"/>
      <stop offset="1" stop-color="#111C35"/>
    </linearGradient>
    <linearGradient id="accent" x1="230" y1="150" x2="980" y2="720" gradientUnits="userSpaceOnUse">
      <stop stop-color="#22D3EE" stop-opacity="0.95"/>
      <stop offset="1" stop-color="#818CF8" stop-opacity="0.9"/>
    </linearGradient>
    <linearGradient id="card" x1="0" y1="0" x2="0" y2="1">
      <stop stop-color="#1B2940" stop-opacity="0.95"/>
      <stop offset="1" stop-color="#0E1729" stop-opacity="0.95"/>
    </linearGradient>
  </defs>
  <rect width="1200" height="900" rx="48" fill="url(#bg)"/>
  <circle cx="260" cy="180" r="160" fill="#22D3EE" fill-opacity="0.14"/>
  <circle cx="940" cy="180" r="120" fill="#818CF8" fill-opacity="0.12"/>
  <circle cx="860" cy="720" r="210" fill="#38BDF8" fill-opacity="0.09"/>
  <g opacity="0.2" stroke="#8FA6C8" stroke-width="1">
    <path d="M0 144H1200"/>
    <path d="M0 288H1200"/>
    <path d="M0 432H1200"/>
    <path d="M0 576H1200"/>
    <path d="M0 720H1200"/>
    <path d="M180 0V900"/>
    <path d="M360 0V900"/>
    <path d="M540 0V900"/>
    <path d="M720 0V900"/>
    <path d="M900 0V900"/>
    <path d="M1080 0V900"/>
  </g>
  <rect x="140" y="120" width="920" height="660" rx="34" fill="#08111F" fill-opacity="0.76" stroke="#FFFFFF" stroke-opacity="0.08"/>
  <rect x="180" y="160" width="500" height="560" rx="28" fill="url(#card)" stroke="#FFFFFF" stroke-opacity="0.08"/>
  <rect x="220" y="204" width="136" height="136" rx="34" fill="url(#accent)"/>
  <text x="288" y="280" text-anchor="middle" fill="#0A0F1C" font-family="Inter, Arial, sans-serif" font-size="54" font-weight="800">HI</text>
  <text x="390" y="245" fill="#F8FAFC" font-family="Inter, Arial, sans-serif" font-size="34" font-weight="800">Himasha Indiwari</text>
  <text x="390" y="285" fill="#22D3EE" font-family="Inter, Arial, sans-serif" font-size="18" font-weight="700" letter-spacing="3">SOFTWARE ENGINEERING</text>
  <text x="390" y="318" fill="#94A3B8" font-family="Inter, Arial, sans-serif" font-size="16">MERN stack · Kotlin · UI systems</text>
  <rect x="220" y="382" width="420" height="1" fill="#FFFFFF" fill-opacity="0.08"/>
  <g>
    <rect x="220" y="420" width="180" height="78" rx="18" fill="#FFFFFF" fill-opacity="0.04"/>
    <rect x="420" y="420" width="180" height="78" rx="18" fill="#FFFFFF" fill-opacity="0.04"/>
    <rect x="220" y="516" width="180" height="78" rx="18" fill="#FFFFFF" fill-opacity="0.04"/>
    <rect x="420" y="516" width="180" height="78" rx="18" fill="#FFFFFF" fill-opacity="0.04"/>
    <text x="310" y="456" text-anchor="middle" fill="#22D3EE" font-family="Inter, Arial, sans-serif" font-size="22" font-weight="800">6+</text>
    <text x="310" y="485" text-anchor="middle" fill="#94A3B8" font-family="Inter, Arial, sans-serif" font-size="12" font-weight="700" letter-spacing="2">PROJECTS</text>
    <text x="510" y="456" text-anchor="middle" fill="#22D3EE" font-family="Inter, Arial, sans-serif" font-size="22" font-weight="800">25+</text>
    <text x="510" y="485" text-anchor="middle" fill="#94A3B8" font-family="Inter, Arial, sans-serif" font-size="12" font-weight="700" letter-spacing="2">TECHS</text>
    <text x="310" y="552" text-anchor="middle" fill="#22D3EE" font-family="Inter, Arial, sans-serif" font-size="22" font-weight="800">3</text>
    <text x="310" y="581" text-anchor="middle" fill="#94A3B8" font-family="Inter, Arial, sans-serif" font-size="12" font-weight="700" letter-spacing="2">YEARS</text>
    <text x="510" y="552" text-anchor="middle" fill="#22D3EE" font-family="Inter, Arial, sans-serif" font-size="22" font-weight="800">OPEN</text>
    <text x="510" y="581" text-anchor="middle" fill="#94A3B8" font-family="Inter, Arial, sans-serif" font-size="12" font-weight="700" letter-spacing="2">INTERNSHIP</text>
  </g>
  <rect x="740" y="160" width="240" height="220" rx="28" fill="url(#card)" stroke="#FFFFFF" stroke-opacity="0.08"/>
  <rect x="770" y="190" width="180" height="18" rx="9" fill="#22D3EE" fill-opacity="0.2"/>
  <rect x="770" y="224" width="130" height="12" rx="6" fill="#FFFFFF" fill-opacity="0.12"/>
  <rect x="770" y="252" width="165" height="12" rx="6" fill="#FFFFFF" fill-opacity="0.12"/>
  <rect x="770" y="280" width="150" height="12" rx="6" fill="#FFFFFF" fill-opacity="0.12"/>
  <rect x="740" y="410" width="240" height="160" rx="28" fill="#0F1B31" fill-opacity="0.9" stroke="#FFFFFF" stroke-opacity="0.08"/>
  <path d="M770 520L820 470L860 492L914 448" stroke="url(#accent)" stroke-width="8" stroke-linecap="round" stroke-linejoin="round"/>
  <circle cx="770" cy="520" r="6" fill="#22D3EE"/>
  <circle cx="820" cy="470" r="6" fill="#22D3EE"/>
  <circle cx="860" cy="492" r="6" fill="#22D3EE"/>
  <circle cx="914" cy="448" r="6" fill="#22D3EE"/>
  <rect x="740" y="594" width="240" height="126" rx="28" fill="#0B1324" fill-opacity="0.95" stroke="#FFFFFF" stroke-opacity="0.08"/>
  <text x="770" y="632" fill="#94A3B8" font-family="JetBrains Mono, Consolas, monospace" font-size="16">npm run build</text>
  <text x="770" y="660" fill="#22D3EE" font-family="JetBrains Mono, Consolas, monospace" font-size="16">compiled successfully</text>
  <rect x="104" y="96" width="992" height="708" rx="40" stroke="#22D3EE" stroke-opacity="0.12"/>
</svg>