<svg width="1200" height="900" viewBox="0 0 1200 900" fill="none" xmlns="http://www.w3.org/2000/svg">
  <defs>
    <linearGradient id="bg" x1="0" y1="0" x2="1200" y2="900">
      <stop stop-color="#07111D"/>
      <stop offset="1" stop-color="#10223D"/>
    </linearGradient>
    <linearGradient id="accent" x1="140" y1="120" x2="1000" y2="820">
      <stop stop-color="#22D3EE"/>
      <stop offset="1" stop-color="#818CF8"/>
    </linearGradient>
  </defs>
  <rect width="1200" height="900" rx="48" fill="url(#bg)"/>
  <g opacity="0.2" stroke="#8FA6C8" stroke-width="1">
    <path d="M90 120H1110"/>
    <path d="M90 240H1110"/>
    <path d="M90 360H1110"/>
    <path d="M90 480H1110"/>
    <path d="M90 600H1110"/>
    <path d="M90 720H1110"/>
    <path d="M180 80V820"/>
    <path d="M360 80V820"/>
    <path d="M540 80V820"/>
    <path d="M720 80V820"/>
    <path d="M900 80V820"/>
    <path d="M1080 80V820"/>
  </g>
  <rect x="120" y="120" width="960" height="660" rx="36" fill="#08111F" fill-opacity="0.78" stroke="#FFFFFF" stroke-opacity="0.08"/>
  <rect x="160" y="160" width="360" height="560" rx="28" fill="#0F1B31" stroke="#FFFFFF" stroke-opacity="0.08"/>
  <text x="200" y="214" fill="#22D3EE" font-family="Inter, Arial, sans-serif" font-size="18" font-weight="700" letter-spacing="3">STACK OVERVIEW</text>
  <rect x="200" y="248" width="280" height="30" rx="15" fill="#22D3EE" fill-opacity="0.16"/>
  <rect x="200" y="296" width="220" height="30" rx="15" fill="#38BDF8" fill-opacity="0.14"/>
  <rect x="200" y="344" width="260" height="30" rx="15" fill="#818CF8" fill-opacity="0.14"/>
  <rect x="200" y="392" width="190" height="30" rx="15" fill="#22D3EE" fill-opacity="0.12"/>
  <rect x="200" y="468" width="280" height="12" rx="6" fill="#FFFFFF" fill-opacity="0.08"/>
  <rect x="200" y="494" width="244" height="12" rx="6" fill="#FFFFFF" fill-opacity="0.08"/>
  <rect x="200" y="520" width="260" height="12" rx="6" fill="#FFFFFF" fill-opacity="0.08"/>
  <rect x="200" y="584" width="120" height="84" rx="18" fill="#FFFFFF" fill-opacity="0.05"/>
  <rect x="344" y="584" width="120" height="84" rx="18" fill="#FFFFFF" fill-opacity="0.05"/>
  <text x="260" y="633" text-anchor="middle" fill="#22D3EE" font-family="JetBrains Mono, Consolas, monospace" font-size="28" font-weight="700">UI</text>
  <text x="404" y="633" text-anchor="middle" fill="#22D3EE" font-family="JetBrains Mono, Consolas, monospace" font-size="28" font-weight="700">API</text>
  <rect x="556" y="160" width="404" height="220" rx="28" fill="#0F1B31" stroke="#FFFFFF" stroke-opacity="0.08"/>
  <rect x="590" y="192" width="336" height="18" rx="9" fill="#FFFFFF" fill-opacity="0.08"/>
  <rect x="590" y="224" width="270" height="18" rx="9" fill="#FFFFFF" fill-opacity="0.06"/>
  <rect x="590" y="256" width="310" height="18" rx="9" fill="#FFFFFF" fill-opacity="0.06"/>
  <rect x="590" y="288" width="230" height="18" rx="9" fill="#FFFFFF" fill-opacity="0.06"/>
  <rect x="590" y="320" width="200" height="18" rx="9" fill="#FFFFFF" fill-opacity="0.06"/>
  <rect x="556" y="410" width="404" height="150" rx="28" fill="#0B1324" fill-opacity="0.95" stroke="#FFFFFF" stroke-opacity="0.08"/>
  <path d="M590 516H920" stroke="url(#accent)" stroke-width="8" stroke-linecap="round"/>
  <circle cx="620" cy="516" r="8" fill="#22D3EE"/>
  <circle cx="704" cy="516" r="8" fill="#22D3EE"/>
  <circle cx="788" cy="516" r="8" fill="#22D3EE"/>
  <circle cx="872" cy="516" r="8" fill="#22D3EE"/>
  <rect x="556" y="582" width="404" height="138" rx="28" fill="#0F1B31" stroke="#FFFFFF" stroke-opacity="0.08"/>
  <text x="590" y="622" fill="#94A3B8" font-family="JetBrains Mono, Consolas, monospace" font-size="15">npm run lint</text>
  <text x="590" y="652" fill="#22D3EE" font-family="JetBrains Mono, Consolas, monospace" font-size="15">0 problems found</text>
  <circle cx="920" cy="220" r="86" fill="#22D3EE" fill-opacity="0.12"/>
  <circle cx="920" cy="220" r="48" fill="#22D3EE" fill-opacity="0.22"/>
  <text x="920" y="230" text-anchor="middle" fill="#F8FAFC" font-family="Inter, Arial, sans-serif" font-size="22" font-weight="800">SHIP</text>
</svg>