<svg width="1200" height="800" viewBox="0 0 1200 800" fill="none" xmlns="http://www.w3.org/2000/svg">
  <defs><linearGradient id="bg" x1="0" y1="0" x2="1200" y2="800"><stop stop-color="#07111E"/><stop offset="1" stop-color="#16294A"/></linearGradient><linearGradient id="accent" x1="140" y1="120" x2="1040" y2="720"><stop stop-color="#22D3EE"/><stop offset="1" stop-color="#38BDF8"/></linearGradient></defs>
  <rect width="1200" height="800" rx="40" fill="url(#bg)"/>
  <rect x="80" y="80" width="1040" height="640" rx="32" fill="#08111F" fill-opacity="0.76" stroke="#FFFFFF" stroke-opacity="0.08"/>
  <rect x="120" y="120" width="620" height="560" rx="28" fill="#0F1B31"/>
  <rect x="780" y="120" width="240" height="260" rx="28" fill="#0F1B31"/>
  <rect x="780" y="400" width="240" height="280" rx="28" fill="#0F1B31"/>
  <text x="160" y="172" fill="#22D3EE" font-family="Inter, Arial, sans-serif" font-size="18" font-weight="700" letter-spacing="3">ONLINE AUCTION</text>
  <rect x="160" y="198" width="240" height="18" rx="9" fill="#FFFFFF" fill-opacity="0.08"/>
  <rect x="160" y="240" width="180" height="120" rx="20" fill="#FFFFFF" fill-opacity="0.04"/>
  <rect x="360" y="240" width="180" height="120" rx="20" fill="#FFFFFF" fill-opacity="0.04"/>
  <rect x="560" y="240" width="120" height="120" rx="20" fill="#22D3EE" fill-opacity="0.14"/>
  <circle cx="220" cy="300" r="30" fill="#22D3EE" fill-opacity="0.2"/>
  <circle cx="420" cy="300" r="30" fill="#38BDF8" fill-opacity="0.18"/>
  <text x="220" y="307" text-anchor="middle" fill="#F8FAFC" font-family="Inter, Arial, sans-serif" font-size="18" font-weight="800">BID</text>
  <text x="420" y="307" text-anchor="middle" fill="#F8FAFC" font-family="Inter, Arial, sans-serif" font-size="18" font-weight="800">SELL</text>
  <rect x="160" y="408" width="500" height="1" fill="#FFFFFF" fill-opacity="0.08"/>
  <rect x="160" y="440" width="420" height="18" rx="9" fill="#22D3EE" fill-opacity="0.16"/>
  <rect x="160" y="472" width="350" height="12" rx="6" fill="#FFFFFF" fill-opacity="0.08"/>
  <rect x="160" y="504" width="390" height="12" rx="6" fill="#FFFFFF" fill-opacity="0.08"/>
  <rect x="820" y="170" width="160" height="18" rx="9" fill="#22D3EE" fill-opacity="0.18"/>
  <rect x="820" y="210" width="100" height="100" rx="18" fill="#FFFFFF" fill-opacity="0.04"/>
  <rect x="820" y="430" width="160" height="16" rx="8" fill="#22D3EE" fill-opacity="0.18"/>
  <rect x="820" y="466" width="120" height="12" rx="6" fill="#FFFFFF" fill-opacity="0.08"/>
  <rect x="820" y="496" width="140" height="12" rx="6" fill="#FFFFFF" fill-opacity="0.08"/>
  <path d="M820 600C860 570 894 566 948 536C980 518 1002 494 1020 472" stroke="url(#accent)" stroke-width="8" stroke-linecap="round" stroke-linejoin="round"/>
  <circle cx="820" cy="600" r="6" fill="#22D3EE"/><circle cx="948" cy="536" r="6" fill="#22D3EE"/><circle cx="1020" cy="472" r="6" fill="#22D3EE"/>
</svg>