<svg width="1200" height="800" viewBox="0 0 1200 800" fill="none" xmlns="http://www.w3.org/2000/svg">
  <defs><linearGradient id="bg" x1="0" y1="0" x2="1200" y2="800"><stop stop-color="#07111E"/><stop offset="1" stop-color="#172747"/></linearGradient><linearGradient id="accent" x1="120" y1="100" x2="1080" y2="720"><stop stop-color="#22D3EE"/><stop offset="1" stop-color="#818CF8"/></linearGradient></defs>
  <rect width="1200" height="800" rx="40" fill="url(#bg)"/>
  <rect x="80" y="80" width="1040" height="640" rx="32" fill="#08111F" fill-opacity="0.76" stroke="#FFFFFF" stroke-opacity="0.08"/>
  <rect x="120" y="120" width="300" height="560" rx="28" fill="#0F1B31"/>
  <rect x="440" y="120" width="640" height="560" rx="28" fill="#0F1B31"/>
  <rect x="160" y="170" width="200" height="18" rx="9" fill="#22D3EE" fill-opacity="0.16"/>
  <rect x="160" y="210" width="160" height="12" rx="6" fill="#FFFFFF" fill-opacity="0.08"/>
  <rect x="160" y="256" width="180" height="90" rx="18" fill="#FFFFFF" fill-opacity="0.04"/>
  <rect x="160" y="366" width="180" height="90" rx="18" fill="#FFFFFF" fill-opacity="0.04"/>
  <rect x="160" y="476" width="180" height="90" rx="18" fill="#FFFFFF" fill-opacity="0.04"/>
  <rect x="500" y="178" width="240" height="18" rx="9" fill="#22D3EE" fill-opacity="0.18"/>
  <rect x="500" y="216" width="180" height="12" rx="6" fill="#FFFFFF" fill-opacity="0.08"/>
  <rect x="500" y="252" width="560" height="1" fill="#FFFFFF" fill-opacity="0.08"/>
  <rect x="500" y="286" width="150" height="150" rx="24" fill="#FFFFFF" fill-opacity="0.04"/>
  <rect x="670" y="286" width="150" height="150" rx="24" fill="#FFFFFF" fill-opacity="0.04"/>
  <rect x="840" y="286" width="150" height="150" rx="24" fill="#FFFFFF" fill-opacity="0.04"/>
  <path d="M190 300H310" stroke="url(#accent)" stroke-width="8" stroke-linecap="round"/>
  <path d="M190 410H310" stroke="url(#accent)" stroke-width="8" stroke-linecap="round"/>
  <path d="M190 520H310" stroke="url(#accent)" stroke-width="8" stroke-linecap="round"/>
  <circle cx="575" cy="361" r="34" fill="#22D3EE" fill-opacity="0.18"/>
  <circle cx="745" cy="361" r="34" fill="#22D3EE" fill-opacity="0.14"/>
  <circle cx="915" cy="361" r="34" fill="#22D3EE" fill-opacity="0.2"/>
  <text x="575" y="369" text-anchor="middle" fill="#F8FAFC" font-family="Inter, Arial, sans-serif" font-size="18" font-weight="800">CRUD</text>
  <text x="745" y="369" text-anchor="middle" fill="#F8FAFC" font-family="Inter, Arial, sans-serif" font-size="18" font-weight="800">ADMIN</text>
  <text x="915" y="369" text-anchor="middle" fill="#F8FAFC" font-family="Inter, Arial, sans-serif" font-size="18" font-weight="800">PROFILE</text>
</svg>